<svg id="圖層_1" data-name="圖層 1" xmlns="http://www.w3.org/2000/svg" viewBox="0 0 48.05 55.49"><defs><style>.cls-1{fill:#231815;}</style></defs><title>pdf</title><path class="cls-1" d="M54,46a1.25,1.25,0,0,0-1.16-.77H50.17A.2.2,0,0,1,50,45V36.06a1.25,1.25,0,0,0-1.25-1.25H40.4a1.25,1.25,0,0,0-1.25,1.25V45a.2.2,0,0,1-.2.21H36.26A1.25,1.25,0,0,0,35.1,46a1.27,1.27,0,0,0,.27,1.36l8.3,8.29a1.29,1.29,0,0,0,1.79,0l8.29-8.29A1.25,1.25,0,0,0,54,46Zm-2.46,1.13-6.79,6.74a.21.21,0,0,1-.29,0l-6.85-6.74a.2.2,0,0,1,0-.23.2.2,0,0,1,.19-.12H40.7V37a.21.21,0,0,1,.21-.21h7.3a.21.21,0,0,1,.21.21v9.75h3a.21.21,0,0,1,.19.12A.24.24,0,0,1,51.56,47.12ZM9.26,52V4H33.82V17.36H47.15V33.07h3.18V14.44L36.55.51H6.07V55.3H40L36.53,52ZM37.32,5.65,46,14.21H37.32Z" transform="translate(-6.07 -0.51)"/><path d="M32.72,29.49A31,31,0,0,1,30,27.17c-.86-.85-1.62-1.68-2.28-2.47,1-3.19,1.48-4.83,1.48-5.71,0-3.72-1.34-4.48-3.36-4.48-1.54,0-3.37.79-3.37,4.59,0,1.67.92,3.71,2.74,6.07l-1.56,4.68c-.28.85-.59,1.64-.91,2.36l-.77.36c-.89.45-1.74.85-2.52,1.22-3.58,1.7-5.95,2.82-5.95,5,0,1.61,1.75,2.61,3.37,2.61,2.08,0,5.23-2.79,7.53-7.48a45.23,45.23,0,0,1,7.7-2.08c1.88,1.44,4,2.83,5,2.83,2.79,0,3.37-1.61,3.37-3,0-2.65-3-2.65-4.49-2.65A25.82,25.82,0,0,0,32.72,29.49ZM16.91,39.18a1.78,1.78,0,0,1-1.13-.36c0-.79,2.37-1.92,4.67-3l.44-.21C19.21,38.05,17.54,39.18,16.91,39.18ZM24.76,19.1c0-2.35.73-2.35,1.12-2.35.79,0,1.12,0,1.12,2.24a18.43,18.43,0,0,1-.89,3.51A6.91,6.91,0,0,1,24.76,19.1Zm.86,12.06c.07-.2.13-.4.2-.6.42-1.24.79-2.37,1.13-3.38.46.52,1,1,1.5,1.58.21.21.73.68,1.43,1.28C28.49,30.34,27,30.71,25.62,31.16Zm12.6.58c0,.5,0,.71-1,.72a8.12,8.12,0,0,1-1.89-1.08l.68-.05C37.63,31.33,38.1,31.49,38.22,31.74Z" transform="translate(-6.07 -0.51)"/></svg>